<svg xmlns="http://www.w3.org/2000/svg" xml:space="preserve" style="enable-background:new 0 0 115.9 67.15" viewBox="0 0 115.9 67.15"><style>.st19{fill:#d77466}.st42{fill:#262c57}</style><g id="Content"><path d="M26.94 18.56a3.966 3.966 0 0 0-3.69-3.67c-1.2-.07-2.29.39-3.05 1.17-.05.06-.14.06-.2 0a3.952 3.952 0 0 0-3.06-1.17c-1.95.12-3.55 1.7-3.69 3.65-.09 1.23.39 2.35 1.2 3.13l5.31 5.31c.18.18.48.18.67 0l5.28-5.28c.83-.78 1.32-1.9 1.23-3.14z" class="st19"/><path d="m40.11 17.64-9.68.02v13.92H9.7V17.66l-9.69-.02L0 21.6l5.74.01v13.93h28.64V21.61l5.74-.01zM14.1 8.22l.39-.16c3.71-1.55 7.96-1.51 11.64.1a7.168 7.168 0 0 1 4.3 6.56v.11h3.96v-.11c0-4.42-2.62-8.42-6.67-10.19-1.81-.79-3.73-1.28-5.68-1.47l.01-3.05L18.09 0l-.01 3.09H18c-1.72.2-3.41.64-5.03 1.31l-.39.16a11.102 11.102 0 0 0-6.84 10.27H9.7c0-2.9 1.72-5.49 4.4-6.61z" class="st42"/><path d="M14.92 53.3c0-4.46 2.82-7.28 8.03-7.28 2.02 0 3.96.39 5.4 1.08v3.41c-1.55-.61-3.43-.97-5.23-.97-2.58 0-4.04 1.38-4.04 3.77 0 2.38 1.47 3.77 4.04 3.77 1.8 0 3.68-.36 5.23-.97v3.41c-1.44.69-3.38 1.08-5.4 1.08-5.2-.01-8.03-2.84-8.03-7.3zM44.38 51v9.22h-3.96v-8.28c0-1.47-.86-2.3-2.3-2.3-2.1 0-3.77 1.72-3.77 3.99v6.59h-3.99V39.46h3.99v9.14c1.14-1.66 2.91-2.6 5.12-2.6 3.09-.01 4.91 1.85 4.91 5zM46.24 53.3c0-4.46 2.91-7.28 7.67-7.28 4.21 0 6.95 2.52 6.95 6.4 0 .8-.08 1.66-.22 2.19H50.53c.44 1.83 1.91 2.74 4.43 2.74 1.69 0 3.35-.42 4.57-1.05v3.21c-1.19.66-3.24 1.08-5.48 1.08-4.96 0-7.81-2.72-7.81-7.29zm10.85-.99c.03-.11.06-.25.06-.42 0-1.41-1.11-2.71-3.18-2.71-1.99 0-3.3 1.02-3.54 3.13h6.66zM77.44 46.38h9.41v13.85h-3.99v-10.5h-5.43v10.49h-3.96V49.73h-5.45v10.49h-3.96V49.73h-2.19v-3.35h2.19v-.78c0-4.24 1.97-6.51 5.04-6.51 1.05 0 1.77.11 2.41.33v3.32c-.19-.03-.61-.11-1.22-.11-1.22 0-2.27.69-2.27 2.77v.97h5.45v-.78c0-4.24 1.97-6.51 5.04-6.51 1.05 0 1.77.11 2.41.33v3.35c-.19-.06-.61-.14-1.22-.14-1.22 0-2.27.69-2.27 2.77v.99zm9.42-6.92v4.93h-3.99v-4.93h3.99zM95.41 45.61v.78h4.04v3.35h-4.04v10.49h-3.96v-10.5h-2.46v-3.35h2.46v-.78c0-4.24 2.33-6.51 5.76-6.51 1.44 0 2.38.17 3.02.42v3.35c-.53-.14-1.11-.25-2.02-.25-1.3 0-2.8.64-2.8 3zM101.59 66.79v-3.35c.8.22 1.72.39 2.69.39 1.69 0 2.49-.61 3.05-2.33l.42-1.27h-2.6l-4.71-13.85h4.26l3.18 10.36h.89l2.88-10.36h4.26l-5.1 16.09c-1.05 3.3-2.99 4.68-6.29 4.68-1.1 0-2.07-.11-2.93-.36z" class="st19"/></g></svg>