<!-- Generated by IcoMoon.io -->
<svg version="1.1" xmlns="http://www.w3.org/2000/svg" width="32" height="32" viewBox="0 0 32 32">
<path d="M23.375 0h-14.688c-4.813 0-8.688 3.875-8.688 8.688v14.688c0 4.75 3.875 8.625 8.688 8.625h14.688c4.75 0 8.625-3.875 8.625-8.625v-14.688c0-4.813-3.875-8.688-8.625-8.688zM12 7.25c0.688 0.188 1.063 0.625 1.375 1.188 0.438 0.563 0.813 1.188 1.125 1.813 0.188 0.313 0.313 0.75 0.313 1.125 0 0.625-0.25 1.063-0.688 1.375-0.375 0.313-0.75 0.625-1.125 0.938-0.313 0.313-0.5 0.688-0.375 1.188 0.125 0.75 0.5 1.375 0.938 2 0.563 0.813 1.188 1.5 1.875 2.188 0.438 0.375 0.875 0.75 1.438 1 0.375 0.188 0.75 0.313 1.188 0.188 0.188-0.063 0.375-0.188 0.563-0.313 0.375-0.375 0.75-0.75 1.125-1.063 0.563-0.438 1.188-0.5 1.813-0.188 0.625 0.25 1.063 0.625 1.5 1.063 0.313 0.25 0.625 0.5 0.875 0.75 0.313 0.313 0.625 0.688 0.75 1.125 0.063 0.375 0 0.688-0.313 1-0.5 0.438-1 0.938-1.563 1.313-0.625 0.5-1.438 0.813-2.25 0.938-0.375 0-0.688 0.063-1.063 0.063-0.75-0.063-1.438-0.25-2.188-0.5-0.75-0.313-1.438-0.688-2.125-1.188-0.438-0.313-0.813-0.625-1.25-0.938-0.313-0.313-0.688-0.625-1-0.938-0.563-0.625-1.188-1.313-1.75-2-0.5-0.625-1-1.313-1.438-2-0.625-1-1.063-2.125-1.313-3.25-0.125-0.688-0.188-1.313-0.125-2 0.063-1.063 0.438-2.063 1.063-2.938 0.313-0.375 0.688-0.75 1.063-1 0.188-0.125 0.313-0.313 0.5-0.5 0.25-0.188 0.563-0.375 0.875-0.438 0.063 0 0.125 0 0.188 0z"></path>
</svg>
